<svg width="61" height="44" viewBox="0 0 61 44" fill="none" xmlns="http://www.w3.org/2000/svg">
<path d="M6.76 20.2156C5.62667 20.2156 4.52 20.009 3.44 19.5956C2.36 19.169 1.4 18.569 0.56 17.7956L2.22 15.7156C3.03333 16.4356 3.81333 16.9556 4.56 17.2756C5.32 17.5956 6.12 17.7556 6.96 17.7556C7.54667 17.7556 8.05333 17.689 8.48 17.5556C8.90667 17.409 9.23333 17.2023 9.46 16.9356C9.7 16.669 9.82 16.3556 9.82 15.9956C9.82 15.5156 9.64667 15.149 9.3 14.8956C8.95333 14.629 8.36 14.4223 7.52 14.2756L4.74 13.7956C3.55333 13.5956 2.64667 13.1756 2.02 12.5356C1.40667 11.8956 1.1 11.069 1.1 10.0556C1.1 9.18896 1.32 8.43562 1.76 7.79562C2.21333 7.15562 2.84667 6.66896 3.66 6.33562C4.48667 5.98896 5.46667 5.81562 6.6 5.81562C7.62667 5.81562 8.64667 5.98896 9.66 6.33562C10.6867 6.68229 11.5933 7.16229 12.38 7.77562L10.82 9.93562C9.35333 8.81562 7.88 8.25563 6.4 8.25563C5.88 8.25563 5.42667 8.32229 5.04 8.45562C4.65333 8.58896 4.35333 8.77562 4.14 9.01562C3.94 9.24229 3.84 9.51562 3.84 9.83562C3.84 10.2623 3.99333 10.5956 4.3 10.8356C4.60667 11.0623 5.12 11.2356 5.84 11.3556L8.48 11.7956C9.88 12.0223 10.9267 12.469 11.62 13.1356C12.3133 13.789 12.66 14.6556 12.66 15.7356C12.66 16.6423 12.42 17.4356 11.94 18.1156C11.46 18.7823 10.7733 19.3023 9.88 19.6756C9 20.0356 7.96 20.2156 6.76 20.2156ZM14.9242 24.3156C14.6842 24.3156 14.4509 24.3023 14.2242 24.2756C14.0109 24.2623 13.8309 24.2423 13.6842 24.2156V21.8556C13.9509 21.909 14.2709 21.9356 14.6442 21.9356C15.6442 21.9356 16.3376 21.4623 16.7242 20.5156L16.8842 20.1156L12.8242 9.59562H15.8442L18.4442 16.6956L21.3842 9.59562H24.3442L19.5442 20.8556C19.1842 21.6956 18.7909 22.369 18.3642 22.8756C17.9376 23.3823 17.4442 23.749 16.8842 23.9756C16.3376 24.2023 15.6842 24.3156 14.9242 24.3156ZM25.4472 20.0156V9.59562H28.1872V10.3956C28.9339 9.72896 29.8405 9.39562 30.9072 9.39562C31.5872 9.39562 32.1939 9.53562 32.7272 9.81562C33.2605 10.0823 33.7005 10.4623 34.0472 10.9556C34.4739 10.449 34.9739 10.0623 35.5472 9.79562C36.1339 9.52896 36.7805 9.39562 37.4872 9.39562C38.2739 9.39562 38.9605 9.57562 39.5472 9.93562C40.1472 10.2823 40.6139 10.769 40.9472 11.3956C41.2939 12.009 41.4672 12.729 41.4672 13.5556V20.0156H38.7472V13.9556C38.7472 13.2756 38.5672 12.7423 38.2072 12.3556C37.8472 11.9556 37.3672 11.7556 36.7672 11.7556C36.3539 11.7556 35.9739 11.8423 35.6272 12.0156C35.2939 12.189 35.0072 12.449 34.7672 12.7956C34.7805 12.9156 34.7939 13.0356 34.8072 13.1556C34.8205 13.2756 34.8272 13.409 34.8272 13.5556V20.0156H32.0872V13.9556C32.0872 13.2756 31.9072 12.7423 31.5472 12.3556C31.2005 11.9556 30.7272 11.7556 30.1272 11.7556C29.7139 11.7556 29.3405 11.8356 29.0072 11.9956C28.6872 12.1556 28.4139 12.3956 28.1872 12.7156V20.0156H25.4472ZM43.5527 20.0156V6.01562L46.2927 5.55562V10.4356C47.1193 9.78229 48.0927 9.45563 49.2127 9.45563C50.1993 9.45563 51.0927 9.69562 51.8927 10.1756C52.6927 10.6556 53.326 11.3023 53.7927 12.1156C54.2727 12.9156 54.5127 13.8156 54.5127 14.8156C54.5127 15.8156 54.2727 16.7223 53.7927 17.5356C53.3127 18.3356 52.666 18.9756 51.8527 19.4556C51.0393 19.9223 50.1327 20.1556 49.1327 20.1556C48.6127 20.1556 48.106 20.0823 47.6127 19.9356C47.1193 19.789 46.666 19.5756 46.2527 19.2956V20.0156H43.5527ZM48.7727 17.8356C49.346 17.8356 49.8593 17.7023 50.3127 17.4356C50.7793 17.169 51.146 16.809 51.4127 16.3556C51.6793 15.9023 51.8127 15.389 51.8127 14.8156C51.8127 14.2423 51.6793 13.729 51.4127 13.2756C51.146 12.809 50.7793 12.449 50.3127 12.1956C49.8593 11.929 49.346 11.7956 48.7727 11.7956C48.266 11.7956 47.7993 11.8823 47.3727 12.0556C46.9593 12.2156 46.5993 12.4623 46.2927 12.7956V16.8556C46.586 17.1623 46.946 17.4023 47.3727 17.5756C47.8127 17.749 48.2793 17.8356 48.7727 17.8356ZM56.1698 20.0156V9.59562H58.9098V20.0156H56.1698ZM57.5298 8.35562C57.1032 8.35562 56.7365 8.20229 56.4298 7.89562C56.1232 7.58896 55.9698 7.22229 55.9698 6.79562C55.9698 6.35562 56.1232 5.98896 56.4298 5.69562C56.7365 5.38896 57.1032 5.23562 57.5298 5.23562C57.9698 5.23562 58.3365 5.38896 58.6298 5.69562C58.9365 5.98896 59.0898 6.35562 59.0898 6.79562C59.0898 7.22229 58.9365 7.58896 58.6298 7.89562C58.3365 8.20229 57.9698 8.35562 57.5298 8.35562Z" fill="black"/>
<path d="M19.7 29.6644H19.5L19.74 29.4044C20.94 28.0844 21.9067 26.9977 22.64 26.1444C23.3867 25.291 23.88 24.691 24.12 24.3444H24.96C24.44 24.7444 23.7933 25.3377 23.02 26.1244C22.2467 26.8977 21.2267 27.9844 19.96 29.3844L19.7 29.6644ZM24.56 29.8644C23.84 30.6644 23.0933 31.2844 22.32 31.7244C21.5467 32.1644 20.7867 32.3844 20.04 32.3844C19.4667 32.3844 18.9933 32.431 18.62 32.5244C18.2333 32.6177 18.04 32.7444 18.04 32.9044C18.04 32.9977 18.12 33.0444 18.28 33.0444C18.8133 33.0444 19.3267 32.9044 19.82 32.6244C20.3267 32.331 20.78 31.9444 21.18 31.4644C21.5933 30.971 21.92 30.4244 22.16 29.8244C22.4 29.211 22.52 28.591 22.52 27.9644C22.52 27.591 22.5467 27.2577 22.6 26.9644C22.6533 26.671 22.7733 26.371 22.96 26.0644C23.16 25.7444 23.46 25.3777 23.86 24.9644L24.94 24.3444C24.4733 24.7044 24.1133 24.9977 23.86 25.2244C23.6067 25.451 23.4267 25.6577 23.32 25.8444C23.2133 26.0177 23.16 26.211 23.16 26.4244C23.16 26.6244 23.2 26.9177 23.28 27.3044C23.36 27.691 23.4 28.0844 23.4 28.4844C23.4 29.0577 23.2533 29.6244 22.96 30.1844C22.6667 30.7444 22.2733 31.251 21.78 31.7044C21.2867 32.1444 20.74 32.4977 20.14 32.7644C19.54 33.031 18.9333 33.1644 18.32 33.1644C18.04 33.1644 17.9 33.0777 17.9 32.9044C17.9 32.7177 18.1067 32.5644 18.52 32.4444C18.92 32.311 19.42 32.2444 20.02 32.2444C21.4733 32.2444 22.9 31.471 24.3 29.9244L24.54 29.6644H24.74L24.56 29.8644ZM25.5591 25.2444V25.0844H35.6991V25.2444H25.5591ZM25.6591 29.3444C24.8991 30.1977 24.3657 30.871 24.0591 31.3644C23.7391 31.8577 23.5791 32.2644 23.5791 32.5844C23.5791 32.891 23.6991 33.0444 23.9391 33.0444C24.1791 33.0444 24.4524 32.9444 24.7591 32.7444C25.0791 32.5444 25.4724 32.2244 25.9391 31.7844C26.4057 31.331 26.9924 30.711 27.6991 29.9244L27.9391 29.6644H28.1391L27.9591 29.8644C26.9057 31.0644 26.0657 31.9177 25.4391 32.4244C24.8124 32.9177 24.2924 33.1644 23.8791 33.1644C23.4124 33.1644 23.1791 32.9044 23.1791 32.3844C23.1791 31.5977 23.6324 30.691 24.5391 29.6644C24.8057 29.3444 25.0524 29.0444 25.2791 28.7644C25.5191 28.4844 25.7857 28.1777 26.0791 27.8444C26.3857 27.511 26.7591 27.1044 27.1991 26.6244C27.6524 26.1444 28.2191 25.5444 28.8991 24.8244C29.5924 24.1044 30.4324 23.2177 31.4191 22.1644C31.6457 22.1644 31.8991 22.1444 32.1791 22.1044C32.4724 22.0644 32.7657 22.0044 33.0591 21.9244C32.6324 22.231 32.0324 22.7577 31.2591 23.5044C30.4857 24.2377 29.6124 25.111 28.6391 26.1244C27.6791 27.1244 26.6857 28.1977 25.6591 29.3444ZM27.4775 33.1244C27.0508 33.1244 26.8375 32.791 26.8375 32.1244C26.8375 31.671 26.9708 31.1977 27.2375 30.7044C27.4908 30.211 27.8375 29.731 28.2775 29.2644C28.7308 28.7977 29.2308 28.3777 29.7775 28.0044C30.3375 27.6177 30.9042 27.311 31.4775 27.0844C32.0642 26.8577 32.6242 26.7444 33.1575 26.7444C33.5975 26.7444 33.8175 26.9177 33.8175 27.2644C33.8175 27.571 33.6108 27.971 33.1975 28.4644C32.7975 28.9577 32.2908 29.5244 31.6775 30.1644C31.1842 30.671 30.6708 31.151 30.1375 31.6044C29.6042 32.0577 29.1042 32.4244 28.6375 32.7044C28.1708 32.9844 27.7842 33.1244 27.4775 33.1244ZM27.4975 32.9844C27.7508 32.9844 28.0908 32.8644 28.5175 32.6244C28.9442 32.371 29.4242 32.0244 29.9575 31.5844C30.4908 31.1444 31.0308 30.6377 31.5775 30.0644C32.1908 29.4244 32.6842 28.871 33.0575 28.4044C33.4442 27.9377 33.6375 27.5644 33.6375 27.2844C33.6375 27.0577 33.4975 26.9444 33.2175 26.9444C32.9508 26.9444 32.6175 27.051 32.2175 27.2644C31.8175 27.4644 31.3908 27.7444 30.9375 28.1044C30.4842 28.451 30.0308 28.8377 29.5775 29.2644C29.1375 29.6777 28.7308 30.1044 28.3575 30.5444C27.9975 30.971 27.7108 31.371 27.4975 31.7444C27.2708 32.1177 27.1575 32.4244 27.1575 32.6644C27.1575 32.8777 27.2708 32.9844 27.4975 32.9844ZM35.4975 29.6644L35.3175 29.8644C34.7842 30.4777 34.2375 31.0377 33.6775 31.5444C33.1175 32.051 32.6042 32.451 32.1375 32.7444C31.6708 33.0244 31.2975 33.1644 31.0175 33.1644C30.8842 33.1644 30.7575 33.1044 30.6375 32.9844C30.5308 32.8777 30.4775 32.7377 30.4775 32.5644C30.4775 32.1244 30.7175 31.531 31.1975 30.7844C31.6908 30.0377 32.3708 29.2177 33.2375 28.3244H33.3175L34.4975 27.0244H36.0175C35.7908 27.1577 35.5508 27.3244 35.2975 27.5244C35.0442 27.711 34.8042 27.9177 34.5775 28.1444C33.6175 29.1177 32.8575 29.8977 32.2975 30.4844C31.7375 31.0577 31.3375 31.511 31.0975 31.8444C30.8708 32.1777 30.7575 32.4444 30.7575 32.6444C30.7575 32.911 30.8575 33.0444 31.0575 33.0444C31.2975 33.0444 31.6242 32.911 32.0375 32.6444C32.4642 32.3777 32.9442 32.011 33.4775 31.5444C34.0108 31.0644 34.5442 30.5244 35.0775 29.9244L35.2975 29.6644H35.4975ZM26.0808 43.6044C25.1608 43.6044 24.4541 43.431 23.9608 43.0844C23.4541 42.751 23.2008 42.2644 23.2008 41.6244C23.2008 41.211 23.3341 40.851 23.6008 40.5444C23.8674 40.2377 24.2008 40.0377 24.6008 39.9444V40.1044C24.2541 40.1977 23.9674 40.3777 23.7408 40.6444C23.5008 40.911 23.3808 41.2377 23.3808 41.6244C23.3808 42.1844 23.6074 42.6244 24.0608 42.9444C24.5008 43.2777 25.0941 43.4444 25.8408 43.4444C26.8008 43.4444 27.7941 43.1777 28.8208 42.6444C29.8474 42.111 30.8741 41.391 31.9008 40.4844C32.9274 39.5777 33.9341 38.551 34.9208 37.4044C35.9074 36.271 36.8608 35.091 37.7808 33.8644C38.7008 32.6377 39.5608 31.4444 40.3608 30.2844L40.4208 30.5844H39.9008L42.0408 28.3844L43.1608 27.0244H44.6008C44.1608 27.3444 43.6808 27.7177 43.1608 28.1444C42.6541 28.571 42.1541 29.011 41.6608 29.4644C41.1808 29.9177 40.7474 30.3644 40.3608 30.8044C39.6674 31.991 38.9141 33.191 38.1008 34.4044C37.3008 35.6177 36.4408 36.771 35.5208 37.8644C34.6141 38.971 33.6541 39.951 32.6408 40.8044C31.6274 41.671 30.5741 42.351 29.4808 42.8444C28.3874 43.351 27.2541 43.6044 26.0808 43.6044ZM36.1408 33.1644C35.7141 33.1644 35.5008 32.9244 35.5008 32.4444C35.5008 32.031 35.6274 31.6377 35.8808 31.2644C36.1341 30.8777 36.4474 30.511 36.8208 30.1644C37.2074 29.8044 37.5941 29.4644 37.9808 29.1444C38.3674 28.8244 38.6874 28.5177 38.9408 28.2244C39.2074 27.9177 39.3408 27.6244 39.3408 27.3444C39.3408 27.1444 39.2408 27.0444 39.0408 27.0444C38.8408 27.0444 38.5541 27.151 38.1808 27.3644C37.8074 27.5777 37.4008 27.8644 36.9608 28.2244C36.5341 28.5844 36.1274 28.9777 35.7408 29.4044L35.5008 29.6644H35.3008L35.5408 29.4044C36.2208 28.6444 36.8741 28.0444 37.5008 27.6044C38.1408 27.151 38.6608 26.9244 39.0608 26.9244C39.2208 26.9244 39.3874 26.9977 39.5608 27.1444C39.7341 27.2777 39.8208 27.4977 39.8208 27.8044C39.8208 28.191 39.6808 28.571 39.4008 28.9444C39.1341 29.3044 38.8008 29.651 38.4008 29.9844C38.0008 30.3177 37.5941 30.6444 37.1808 30.9644C36.7808 31.271 36.4408 31.571 36.1608 31.8644C35.8941 32.1444 35.7608 32.411 35.7608 32.6644C35.7608 32.7977 35.8008 32.8977 35.8808 32.9644C35.9741 33.0177 36.0674 33.0444 36.1608 33.0444C36.4008 33.0444 36.7274 32.931 37.1408 32.7044C37.5674 32.4777 38.0274 32.171 38.5208 31.7844C39.0274 31.3977 39.4874 30.9977 39.9008 30.5844H40.0808C39.6541 31.0377 39.1808 31.4644 38.6608 31.8644C38.1541 32.251 37.6741 32.5644 37.2208 32.8044C36.7674 33.0444 36.4074 33.1644 36.1408 33.1644Z" fill="black"/>
</svg>
