<svg xmlns="http://www.w3.org/2000/svg" width="22" height="22" viewBox="3 0 22 22" fill="none">
    <path
            d="M5 4.42857C5 4.04969 5.15218 3.68633 5.42307 3.41842C5.69395 3.15051 6.06135 3 6.44444 3H16.5556C16.9386 3 17.306 3.15051 17.5769 3.41842C17.8478 3.68633 18 4.04969 18 4.42857V11.5714C18 11.9503 17.8478 12.3137 17.5769 12.5816C17.306 12.8495 16.9386 13 16.5556 13H6.44444C6.06135 13 5.69395 12.8495 5.42307 12.5816C5.15218 12.3137 5 11.9503 5 11.5714V4.42857Z"
            stroke="black" stroke-linecap="round" stroke-linejoin="round"/>
    <path d="M5 4L11.5 9L18 4" stroke="black" stroke-linecap="round" stroke-linejoin="round"/>
</svg>
