<svg xmlns="http://www.w3.org/2000/svg" width="23" height="23" viewBox="0 0 23 23" fill="none">
    <g clip-path="url(#clip0_39_28)">
        <path
                d="M13.4723 3.26793C11.7406 4.00297 10.6021 5.61872 10.5436 7.46543L10.5417 7.63985L10.3088 7.61781C8.01649 7.36002 5.99824 6.16881 4.61249 4.23393C4.51866 4.1028 4.39325 3.99746 4.24789 3.92768C4.10252 3.85789 3.9419 3.82592 3.78089 3.83471C3.61989 3.8435 3.4637 3.89277 3.3268 3.97797C3.18989 4.06317 3.0767 4.18153 2.9977 4.3221L2.90474 4.50035L2.85779 4.59522C2.16874 6.01835 1.71737 7.74814 1.88316 9.58143L1.91191 9.84306C2.18312 12.0118 3.34941 13.8824 5.53345 15.2854L5.69924 15.388L5.62162 15.4292C4.36141 16.0646 3.20854 16.3415 1.95408 16.2917C0.942078 16.2533 0.568328 17.6065 1.45766 18.0914C4.90574 19.9707 8.60779 20.5505 11.8 19.6248C15.6908 18.4939 18.654 15.5777 19.7877 11.5431L19.9094 11.0688C20.1375 10.1171 20.2659 9.14635 20.2937 8.17077L20.2966 7.8526L20.6732 7.10606L21.0949 6.27997L21.3 5.86406L21.413 5.62735C21.667 5.08589 21.85 4.63739 21.9631 4.25693L21.9765 4.20327L21.9842 4.18602C22.195 3.61772 21.8251 2.8846 21.0824 2.8846L20.9655 2.89131C20.8898 2.90061 20.8155 2.91895 20.7441 2.94593L20.6617 2.98235C20.3882 3.11516 20.1065 3.2304 19.8184 3.32735L19.4772 3.43756L19.2175 3.51422L18.4777 3.71931C17.1973 2.64789 15.4647 2.51756 13.6745 3.18839L13.4723 3.26793Z"
                fill="black"/>
    </g>
    <defs>
        <clipPath id="clip0_39_28">
            <rect width="23" height="23" fill="white"/>
        </clipPath>
    </defs>
</svg>
