<svg xmlns="http://www.w3.org/2000/svg" width="20" height="20" viewBox="0 0 20 20" fill="none">
    <g clip-path="url(#clip0_39_25)">
        <path
                d="M15 2.5C15.5472 2.5 16.089 2.60777 16.5946 2.81717C17.1001 3.02656 17.5594 3.33348 17.9463 3.72039C18.3332 4.1073 18.6401 4.56663 18.8495 5.07215C19.0589 5.57768 19.1667 6.11949 19.1667 6.66667V13.3333C19.1667 13.8805 19.0589 14.4223 18.8495 14.9278C18.6401 15.4334 18.3332 15.8927 17.9463 16.2796C17.5594 16.6665 17.1001 16.9734 16.5946 17.1828C16.089 17.3922 15.5472 17.5 15 17.5H5.00004C4.45287 17.5 3.91105 17.3922 3.40553 17.1828C2.9 16.9734 2.44067 16.6665 2.05376 16.2796C1.27236 15.4982 0.833374 14.4384 0.833374 13.3333V6.66667C0.833374 5.5616 1.27236 4.50179 2.05376 3.72039C2.83516 2.93899 3.89497 2.5 5.00004 2.5H15ZM7.50004 7.5V12.5C7.50016 12.6474 7.53935 12.7921 7.61363 12.9194C7.68791 13.0466 7.79462 13.152 7.92287 13.2246C8.05112 13.2971 8.19633 13.3344 8.34369 13.3326C8.49105 13.3308 8.63529 13.2899 8.76171 13.2142L12.9284 10.7142C13.0516 10.6401 13.1535 10.5354 13.2243 10.4102C13.2951 10.2851 13.3323 10.1438 13.3323 10C13.3323 9.85623 13.2951 9.71491 13.2243 9.58977C13.1535 9.46462 13.0516 9.35992 12.9284 9.28583L8.76171 6.78583C8.63529 6.71008 8.49105 6.66921 8.34369 6.66739C8.19633 6.66556 8.05112 6.70285 7.92287 6.77545C7.79462 6.84804 7.68791 6.95335 7.61363 7.08064C7.53935 7.20792 7.50016 7.35263 7.50004 7.5Z"
                fill="black"/>
    </g>
    <defs>
        <clipPath id="clip0_39_25">
            <rect width="20" height="20" fill="white"/>
        </clipPath>
    </defs>
</svg>
